{
  "accessors": [
    {
      "bufferView": 2,
      "componentType": 5126,
      "count": 2125,
      "max": [
        111.45590209960938,
        52.088623046875,
        0.5389999747276306
      ],
      "min": [
        -111.27159881591797,
        -53.06097412109375,
        -82.48450469970703
      ],
      "type": "VEC3"
    },
    {
      "bufferView": 2,
      "byteOffset": 25500,
      "componentType": 5126,
      "count": 2125,
      "max": [
        1.0,
        0.9870660305023193,
        0.9578914642333984
      ],
      "min": [
        -1.0,
        -0.9815906286239624,
        -0.9512327313423157
      ],
      "type": "VEC3"
    },
    {
      "bufferView": 3,
      "componentType": 5126,
      "count": 2125,
      "max": [
        1.0,
        1.0,
        0.9993966221809387,
        1.0
      ],
      "min": [
        -1.0,
        -1.0,
        -0.9999999403953552,
        -1.0
      ],
      "type": "VEC4"
    },
    {
      "bufferView": 1,
      "componentType": 5126,
      "count": 2125,
      "max": [
        0.9948797225952148,
        0.9955138564109802
      ],
      "min": [
        0.00448520528152585,
        0.0044787004590034485
      ],
      "type": "VEC2"
    },
    {
      "bufferView": 1,
      "byteOffset": 17000,
      "componentType": 5126,
      "count": 2125,
      "max": [
        0.9948797225952148,
        0.9955138564109802
      ],
      "min": [
        0.00448520528152585,
        0.0044787004590034485
      ],
      "type": "VEC2"
    },
    {
      "bufferView": 1,
      "byteOffset": 34000,
      "componentType": 5126,
      "count": 2125,
      "max": [
        0.9948797225952148,
        0.9955138564109802
      ],
      "min": [
        0.00448520528152585,
        0.0044787004590034485
      ],
      "type": "VEC2"
    },
    {
      "bufferView": 0,
      "componentType": 5125,
      "count": 8280,
      "type": "SCALAR"
    }
  ],
  "asset": {
    "extras": {
      "author": "Kadre (https://sketchfab.com/Kadre)",
      "license": "CC-BY-4.0 (http://creativecommons.org/licenses/by/4.0/)",
      "source": "https://sketchfab.com/3d-models/fantasy-table-low-poly-stylised-50a4b86e49ce4b52a7068c79e7f04c06",
      "title": "Fantasy Table Low-poly Stylised"
    },
    "generator": "Sketchfab-15.27.0",
    "version": "2.0"
  },
  "bufferViews": [
    {
      "buffer": 0,
      "byteLength": 33120,
      "name": "floatBufferViews",
      "target": 34963
    },
    {
      "buffer": 0,
      "byteLength": 51000,
      "byteOffset": 33120,
      "byteStride": 8,
      "name": "floatBufferViews",
      "target": 34962
    },
    {
      "buffer": 0,
      "byteLength": 51000,
      "byteOffset": 84120,
      "byteStride": 12,
      "name": "floatBufferViews",
      "target": 34962
    },
    {
      "buffer": 0,
      "byteLength": 34000,
      "byteOffset": 135120,
      "byteStride": 16,
      "name": "floatBufferViews",
      "target": 34962
    }
  ],
  "buffers": [
    {
      "byteLength": 169120,
      "uri": "scene.bin"
    }
  ],
  "images": [
    {
      "uri": "textures/TableComb_baseColor.png"
    },
    {
      "uri": "textures/TableComb_metallicRoughness.png"
    },
    {
      "uri": "textures/TableComb_normal.png"
    }
  ],
  "materials": [
    {
      "name": "TableComb",
      "normalTexture": {
        "index": 2
      },
      "pbrMetallicRoughness": {
        "baseColorTexture": {
          "index": 0
        },
        "metallicRoughnessTexture": {
          "index": 1
        }
      }
    }
  ],
  "meshes": [
    {
      "name": "table_final_TableComb_0",
      "primitives": [
        {
          "attributes": {
            "NORMAL": 1,
            "POSITION": 0,
            "TANGENT": 2,
            "TEXCOORD_0": 3,
            "TEXCOORD_1": 4,
            "TEXCOORD_2": 5
          },
          "indices": 6,
          "material": 0,
          "mode": 4
        }
      ]
    }
  ],
  "nodes": [
    {
      "children": [
        1
      ],
      "matrix": [
        1.0,
        0.0,
        0.0,
        0.0,
        0.0,
        2.220446049250313e-16,
        -1.0,
        0.0,
        0.0,
        1.0,
        2.220446049250313e-16,
        0.0,
        0.0,
        0.0,
        0.0,
        1.0
      ],
      "name": "Sketchfab_model"
    },
    {
      "children": [
        2
      ],
      "matrix": [
        0.009999999776482582,
        0.0,
        0.0,
        0.0,
        0.0,
        0.0,
        0.009999999776482582,
        0.0,
        0.0,
        -0.009999999776482582,
        0.0,
        0.0,
        0.0,
        0.0,
        0.0,
        1.0
      ],
      "name": "644ae8dae18b4976a1349a404d552f25.fbx"
    },
    {
      "children": [
        3
      ],
      "name": "RootNode"
    },
    {
      "children": [
        4
      ],
      "matrix": [
        1.0,
        0.0,
        0.0,
        0.0,
        0.0,
        -1.6292067939183141e-07,
        0.9999999999999868,
        0.0,
        0.0,
        -0.9999999999999868,
        -1.6292067939183141e-07,
        0.0,
        2.9802322387695313e-06,
        -0.41760000586509705,
        0.13577499985694885,
        1.0
      ],
      "name": "table_final"
    },
    {
      "mesh": 0,
      "name": "table_final_TableComb_0"
    }
  ],
  "samplers": [
    {
      "magFilter": 9729,
      "minFilter": 9987,
      "wrapS": 10497,
      "wrapT": 10497
    }
  ],
  "scene": 0,
  "scenes": [
    {
      "name": "Sketchfab_Scene",
      "nodes": [
        0
      ]
    }
  ],
  "textures": [
    {
      "sampler": 0,
      "source": 0
    },
    {
      "sampler": 0,
      "source": 1
    },
    {
      "sampler": 0,
      "source": 2
    }
  ]
}
